<svg width="274" height="574" xmlns="http://www.w3.org/2000/svg" xmlns:xlink="http://www.w3.org/1999/xlink"><defs><linearGradient x1="9.103%" y1="142.082%" x2="107.852%" y2="-93.01%" id="c"><stop stop-color="#FFF" offset="0%"/><stop stop-color="#FFF" offset="38.788%"/><stop stop-color="#FFF" offset="100%"/><stop stop-color="#B721FF" offset="100%"/></linearGradient><rect id="b" x="16" y="183" width="240" height="314" rx="6"/><filter x="-9.4%" y="-6.2%" width="118.8%" height="114.3%" filterUnits="objectBoundingBox" id="a"><feOffset dy="3" in="SourceAlpha" result="shadowOffsetOuter1"/><feGaussianBlur stdDeviation="7" in="shadowOffsetOuter1" result="shadowBlurOuter1"/><feColorMatrix values="0 0 0 0 0 0 0 0 0 0 0 0 0 0 0 0 0 0 0.189283288 0" in="shadowBlurOuter1" result="shadowMatrixOuter1"/><feOffset dy="2" in="SourceAlpha" result="shadowOffsetOuter2"/><feGaussianBlur stdDeviation="2" in="shadowOffsetOuter2" result="shadowBlurOuter2"/><feColorMatrix values="0 0 0 0 0 0 0 0 0 0 0 0 0 0 0 0 0 0 0.138357736 0" in="shadowBlurOuter2" result="shadowMatrixOuter2"/><feMerge><feMergeNode in="shadowMatrixOuter1"/><feMergeNode in="shadowMatrixOuter2"/></feMerge></filter></defs><g fill="none" fill-rule="evenodd"><path fill="#FAFBFC" d="M0 0h274v574H0z"/><use fill="#000" filter="url(#a)" xlink:href="#b"/><use fill="url(#c)" xlink:href="#b"/><g transform="translate(37 212)" fill="#D9DEE5"><rect width="199" height="10" rx="2"/><rect x="22" y="18" width="156" height="10" rx="2"/></g><rect fill="#F2F4F7" x="38" y="264" width="199" height="214" rx="5"/><rect fill="#D9DEE5" transform="rotate(45 135.5 371.5)" x="83" y="319" width="105" height="105" rx="9"/><rect fill="#4C5D6E" x="75" y="116" width="122" height="13.867" rx="2"/><rect fill="#BDC5D0" x="86" y="140.533" width="99" height="9.6" rx="2"/><rect fill="#4C5D6E" x="111" y="44" width="50" height="50" rx="25"/><path fill="#FFF" d="M0 524h274v50H0z"/><rect fill="#BDC5D0" x="93" y="541" width="85" height="16" rx="3"/></g></svg>